<svg width="131" height="52" viewBox="0 0 131 52" fill="none" xmlns="http://www.w3.org/2000/svg">
<path d="M125.168 34.2695H129.949V51.4492H125.168V34.2695Z" fill="#00307C"/>
<path d="M113.344 43.0352L108.785 42.5547C108.957 41.7578 109.203 41.1328 109.523 40.6797C109.852 40.2188 110.32 39.8203 110.93 39.4844C111.367 39.2422 111.969 39.0547 112.734 38.9219C113.5 38.7891 114.328 38.7227 115.219 38.7227C116.648 38.7227 117.797 38.8047 118.664 38.9688C119.531 39.125 120.254 39.457 120.832 39.9648C121.238 40.3164 121.559 40.8164 121.793 41.4648C122.027 42.1055 122.145 42.7188 122.145 43.3047V48.8008C122.145 49.3867 122.18 49.8477 122.25 50.1836C122.328 50.5117 122.492 50.9336 122.742 51.4492H118.266C118.086 51.1289 117.969 50.8867 117.914 50.7227C117.859 50.5508 117.805 50.2852 117.75 49.9258C117.125 50.5273 116.504 50.957 115.887 51.2148C115.043 51.5586 114.062 51.7305 112.945 51.7305C111.461 51.7305 110.332 51.3867 109.559 50.6992C108.793 50.0117 108.41 49.1641 108.41 48.1562C108.41 47.2109 108.688 46.4336 109.242 45.8242C109.797 45.2148 110.82 44.7617 112.312 44.4648C114.102 44.1055 115.262 43.8555 115.793 43.7148C116.324 43.5664 116.887 43.375 117.48 43.1406C117.48 42.5547 117.359 42.1445 117.117 41.9102C116.875 41.6758 116.449 41.5586 115.84 41.5586C115.059 41.5586 114.473 41.6836 114.082 41.9336C113.777 42.1289 113.531 42.4961 113.344 43.0352ZM117.48 45.543C116.824 45.7773 116.141 45.9844 115.43 46.1641C114.461 46.4219 113.848 46.6758 113.59 46.9258C113.324 47.1836 113.191 47.4766 113.191 47.8047C113.191 48.1797 113.32 48.4883 113.578 48.7305C113.844 48.9648 114.23 49.082 114.738 49.082C115.27 49.082 115.762 48.9531 116.215 48.6953C116.676 48.4375 117 48.125 117.188 47.7578C117.383 47.3828 117.48 46.8984 117.48 46.3047V45.543Z" fill="#00307C"/>
<path d="M104.086 34.2695V39.0039H106.711V42.4844H104.086V46.9023C104.086 47.4336 104.137 47.7852 104.238 47.957C104.395 48.2227 104.668 48.3555 105.059 48.3555C105.41 48.3555 105.902 48.2539 106.535 48.0508L106.887 51.3438C105.707 51.6016 104.605 51.7305 103.582 51.7305C102.395 51.7305 101.52 51.5781 100.957 51.2734C100.395 50.9688 99.9766 50.5078 99.7031 49.8906C99.4375 49.2656 99.3047 48.2578 99.3047 46.8672V42.4844H97.5469V39.0039H99.3047V36.7188L104.086 34.2695Z" fill="#00307C"/>
<path d="M87.7148 39.0039H92.1797V41.043C92.6094 40.1602 93.0508 39.5547 93.5039 39.2266C93.9648 38.8906 94.5312 38.7227 95.2031 38.7227C95.9062 38.7227 96.6758 38.9414 97.5117 39.3789L96.0352 42.7773C95.4727 42.543 95.0273 42.4258 94.6992 42.4258C94.0742 42.4258 93.5898 42.6836 93.2461 43.1992C92.7539 43.9258 92.5078 45.2852 92.5078 47.2773V51.4492H87.7148V39.0039Z" fill="#00307C"/>
<path d="M71.0742 45.2617C71.0742 43.3633 71.7148 41.8008 72.9961 40.5742C74.2773 39.3398 76.0078 38.7227 78.1875 38.7227C80.6797 38.7227 82.5625 39.4453 83.8359 40.8906C84.8594 42.0547 85.3711 43.4883 85.3711 45.1914C85.3711 47.1055 84.7344 48.6758 83.4609 49.9023C82.1953 51.1211 80.4414 51.7305 78.1992 51.7305C76.1992 51.7305 74.582 51.2227 73.3477 50.207C71.832 48.9492 71.0742 47.3008 71.0742 45.2617ZM75.8555 45.25C75.8555 46.3594 76.0781 47.1797 76.5234 47.7109C76.9766 48.2422 77.543 48.5078 78.2227 48.5078C78.9102 48.5078 79.4727 48.2461 79.9102 47.7227C80.3555 47.1992 80.5781 46.3594 80.5781 45.2031C80.5781 44.125 80.3555 43.3242 79.9102 42.8008C79.4648 42.2695 78.9141 42.0039 78.2578 42.0039C77.5625 42.0039 76.9883 42.2734 76.5352 42.8125C76.082 43.3438 75.8555 44.1562 75.8555 45.25Z" fill="#00307C"/>
<path d="M54.6094 34.2695H63.4336C65.3555 34.2695 66.793 34.7266 67.7461 35.6406C68.707 36.5547 69.1875 37.8555 69.1875 39.543C69.1875 41.2773 68.6641 42.6328 67.6172 43.6094C66.5781 44.5859 64.9883 45.0742 62.8477 45.0742H59.9414V51.4492H54.6094V34.2695ZM59.9414 41.5938H61.2422C62.2656 41.5938 62.9844 41.418 63.3984 41.0664C63.8125 40.707 64.0195 40.25 64.0195 39.6953C64.0195 39.1562 63.8398 38.6992 63.4805 38.3242C63.1211 37.9492 62.4453 37.7617 61.4531 37.7617H59.9414V41.5938Z" fill="#00307C"/>
<path d="M128.086 0.269531V5.00391H130.711V8.48438H128.086V12.9023C128.086 13.4336 128.137 13.7852 128.238 13.957C128.395 14.2227 128.668 14.3555 129.059 14.3555C129.41 14.3555 129.902 14.2539 130.535 14.0508L130.887 17.3438C129.707 17.6016 128.605 17.7305 127.582 17.7305C126.395 17.7305 125.52 17.5781 124.957 17.2734C124.395 16.9688 123.977 16.5078 123.703 15.8906C123.438 15.2656 123.305 14.2578 123.305 12.8672V8.48438H121.547V5.00391H123.305V2.71875L128.086 0.269531Z" fill="#00307C"/>
<path d="M106.324 5.00391H110.766V7.03125C111.43 6.20312 112.102 5.61328 112.781 5.26172C113.461 4.90234 114.289 4.72266 115.266 4.72266C116.586 4.72266 117.617 5.11719 118.359 5.90625C119.109 6.6875 119.484 7.89844 119.484 9.53906V17.4492H114.691V10.6055C114.691 9.82422 114.547 9.27344 114.258 8.95312C113.969 8.625 113.562 8.46094 113.039 8.46094C112.461 8.46094 111.992 8.67969 111.633 9.11719C111.273 9.55469 111.094 10.3398 111.094 11.4727V17.4492H106.324V5.00391Z" fill="#00307C"/>
<path d="M104.133 12.4102H94.5703C94.6562 13.1758 94.8633 13.7461 95.1914 14.1211C95.6523 14.6602 96.2539 14.9297 96.9961 14.9297C97.4648 14.9297 97.9102 14.8125 98.332 14.5781C98.5898 14.4297 98.8672 14.168 99.1641 13.793L103.863 14.2266C103.145 15.4766 102.277 16.375 101.262 16.9219C100.246 17.4609 98.7891 17.7305 96.8906 17.7305C95.2422 17.7305 93.9453 17.5 93 17.0391C92.0547 16.5703 91.2695 15.832 90.6445 14.8242C90.0273 13.8086 89.7188 12.6172 89.7188 11.25C89.7188 9.30469 90.3398 7.73047 91.582 6.52734C92.832 5.32422 94.5547 4.72266 96.75 4.72266C98.5312 4.72266 99.9375 4.99219 100.969 5.53125C102 6.07031 102.785 6.85156 103.324 7.875C103.863 8.89844 104.133 10.2305 104.133 11.8711V12.4102ZM99.2812 10.125C99.1875 9.20312 98.9375 8.54297 98.5312 8.14453C98.1328 7.74609 97.6055 7.54688 96.9492 7.54688C96.1914 7.54688 95.5859 7.84766 95.1328 8.44922C94.8438 8.82422 94.6602 9.38281 94.582 10.125H99.2812Z" fill="#00307C"/>
<path d="M66.3516 5.00391H70.8047V6.82031C71.4453 6.0625 72.0898 5.52344 72.7383 5.20312C73.3945 4.88281 74.1836 4.72266 75.1055 4.72266C76.0977 4.72266 76.8828 4.89844 77.4609 5.25C78.0391 5.60156 78.5117 6.125 78.8789 6.82031C79.6289 6.00781 80.3125 5.45703 80.9297 5.16797C81.5469 4.87109 82.3086 4.72266 83.2148 4.72266C84.5508 4.72266 85.5938 5.12109 86.3438 5.91797C87.0938 6.70703 87.4688 7.94531 87.4688 9.63281V17.4492H82.6875V10.3594C82.6875 9.79688 82.5781 9.37891 82.3594 9.10547C82.0391 8.67578 81.6406 8.46094 81.1641 8.46094C80.6016 8.46094 80.1484 8.66406 79.8047 9.07031C79.4609 9.47656 79.2891 10.1289 79.2891 11.0273V17.4492H74.5078V10.5938C74.5078 10.0469 74.4766 9.67578 74.4141 9.48047C74.3125 9.16797 74.1367 8.91797 73.8867 8.73047C73.6367 8.53516 73.3438 8.4375 73.0078 8.4375C72.4609 8.4375 72.0117 8.64453 71.6602 9.05859C71.3086 9.47266 71.1328 10.1523 71.1328 11.0977V17.4492H66.3516V5.00391Z" fill="#00307C"/>
<path d="M63.4219 17.4492H58.9688V15.4336C58.3047 16.2617 57.6328 16.8516 56.9531 17.2031C56.2812 17.5547 55.4531 17.7305 54.4688 17.7305C53.1562 17.7305 52.125 17.3398 51.375 16.5586C50.6328 15.7695 50.2617 14.5586 50.2617 12.9258V5.00391H55.0547V11.8477C55.0547 12.6289 55.1992 13.1836 55.4883 13.5117C55.7773 13.8398 56.1836 14.0039 56.707 14.0039C57.2773 14.0039 57.7422 13.7852 58.1016 13.3477C58.4688 12.9102 58.6523 12.125 58.6523 10.9922V5.00391H63.4219V17.4492Z" fill="#00307C"/>
<path d="M43.582 12.5859L48.1172 13.1016C47.8672 14.0469 47.457 14.8672 46.8867 15.5625C46.3164 16.25 45.5859 16.7852 44.6953 17.168C43.8125 17.5508 42.6875 17.7422 41.3203 17.7422C40 17.7422 38.8984 17.6211 38.0156 17.3789C37.1406 17.1289 36.3867 16.7305 35.7539 16.1836C35.1211 15.6289 34.625 14.9805 34.2656 14.2383C33.9062 13.4961 33.7266 12.5117 33.7266 11.2852C33.7266 10.0039 33.9453 8.9375 34.3828 8.08594C34.7031 7.46094 35.1406 6.90234 35.6953 6.41016C36.25 5.91016 36.8203 5.53906 37.4062 5.29688C38.3359 4.91406 39.5273 4.72266 40.9805 4.72266C43.0117 4.72266 44.5586 5.08594 45.6211 5.8125C46.6914 6.53906 47.4414 7.60156 47.8711 9L43.3828 9.59766C43.2422 9.06641 42.9844 8.66797 42.6094 8.40234C42.2422 8.12891 41.7461 7.99219 41.1211 7.99219C40.332 7.99219 39.6914 8.27734 39.1992 8.84766C38.7148 9.41016 38.4727 10.2656 38.4727 11.4141C38.4727 12.4375 38.7148 13.2148 39.1992 13.7461C39.6836 14.2773 40.3008 14.543 41.0508 14.543C41.6758 14.543 42.1992 14.3828 42.6211 14.0625C43.0508 13.7422 43.3711 13.25 43.582 12.5859Z" fill="#00307C"/>
<path d="M17.707 11.2617C17.707 9.36328 18.3477 7.80078 19.6289 6.57422C20.9102 5.33984 22.6406 4.72266 24.8203 4.72266C27.3125 4.72266 29.1953 5.44531 30.4688 6.89062C31.4922 8.05469 32.0039 9.48828 32.0039 11.1914C32.0039 13.1055 31.3672 14.6758 30.0938 15.9023C28.8281 17.1211 27.0742 17.7305 24.832 17.7305C22.832 17.7305 21.2148 17.2227 19.9805 16.207C18.4648 14.9492 17.707 13.3008 17.707 11.2617ZM22.4883 11.25C22.4883 12.3594 22.7109 13.1797 23.1562 13.7109C23.6094 14.2422 24.1758 14.5078 24.8555 14.5078C25.543 14.5078 26.1055 14.2461 26.543 13.7227C26.9883 13.1992 27.2109 12.3594 27.2109 11.2031C27.2109 10.125 26.9883 9.32422 26.543 8.80078C26.0977 8.26953 25.5469 8.00391 24.8906 8.00391C24.1953 8.00391 23.6211 8.27344 23.168 8.8125C22.7148 9.34375 22.4883 10.1562 22.4883 11.25Z" fill="#00307C"/>
<path d="M0 0.269531H7.88672C9.44141 0.269531 10.6953 0.480469 11.6484 0.902344C12.6094 1.32422 13.4023 1.92969 14.0273 2.71875C14.6523 3.50781 15.1055 4.42578 15.3867 5.47266C15.668 6.51953 15.8086 7.62891 15.8086 8.80078C15.8086 10.6367 15.5977 12.0625 15.1758 13.0781C14.7617 14.0859 14.1836 14.9336 13.4414 15.6211C12.6992 16.3008 11.9023 16.7539 11.0508 16.9805C9.88672 17.293 8.83203 17.4492 7.88672 17.4492H0V0.269531ZM5.30859 4.16016V13.5469H6.60938C7.71875 13.5469 8.50781 13.4258 8.97656 13.1836C9.44531 12.9336 9.8125 12.5039 10.0781 11.8945C10.3438 11.2773 10.4766 10.2812 10.4766 8.90625C10.4766 7.08594 10.1797 5.83984 9.58594 5.16797C8.99219 4.49609 8.00781 4.16016 6.63281 4.16016H5.30859Z" fill="#00307C"/>
</svg>
