<svg width="24" height="24" viewBox="0 0 24 24" fill="none" xmlns="http://www.w3.org/2000/svg">
<path fill-rule="evenodd" clip-rule="evenodd" d="M15.0986 1.00488C15.3276 1.02757 15.5429 1.12883 15.707 1.29297L20.707 6.29297C20.8946 6.4805 21 6.73478 21 7V20C21 20.7957 20.6837 21.5585 20.1211 22.1211C19.5585 22.6837 18.7957 23 18 23H6C5.20435 23 4.44151 22.6837 3.87891 22.1211C3.3163 21.5585 3 20.7957 3 20H5C5 20.2652 5.10543 20.5195 5.29297 20.707C5.48051 20.8946 5.73478 21 6 21H18C18.2652 21 18.5195 20.8946 18.707 20.707C18.8946 20.5195 19 20.2652 19 20V9H16C15.2044 9 14.4415 8.6837 13.8789 8.12109C13.3163 7.55849 13 6.79565 13 6V3H6C5.73478 3 5.4805 3.10543 5.29297 3.29297C5.10543 3.4805 5 3.73478 5 4V6H3V4C3 3.20435 3.3163 2.44152 3.87891 1.87891C4.44152 1.3163 5.20435 1 6 1H15L15.0986 1.00488ZM15 6C15 6.26522 15.1054 6.51949 15.293 6.70703C15.4805 6.89457 15.7348 7 16 7H18.5859L15 3.41406V6Z" fill="#00307C"/>
<path d="M16 16C16.5523 16 17 16.4477 17 17C17 17.5523 16.5523 18 16 18H13V16H16Z" fill="#00307C"/>
<path d="M16 12C16.5523 12 17 12.4477 17 13C17 13.5523 16.5523 14 16 14H13V12H16Z" fill="#00307C"/>
<path d="M10 7C11.1046 7 12 7.89543 12 9V17C12 18.1046 11.1046 19 10 19H2C0.895431 19 3.22133e-08 18.1046 0 17V9C1.28853e-07 7.89543 0.895431 7 2 7H10ZM6 9.25C5.71737 9.25 5.46255 9.40837 5.33496 9.65332L5.28809 9.7627L4 13.627L2.71191 9.7627L2.68359 9.69141C2.52759 9.34471 2.13112 9.16528 1.7627 9.28809C1.39436 9.41087 1.18453 9.79221 1.26758 10.1631L1.28809 10.2373L3.28809 16.2373C3.39017 16.5436 3.67718 16.75 4 16.75C4.32282 16.75 4.60983 16.5436 4.71191 16.2373L6 12.373L7.28809 16.2373C7.39017 16.5436 7.67718 16.75 8 16.75C8.32282 16.75 8.60983 16.5436 8.71191 16.2373L10.7119 10.2373C10.8429 9.84435 10.6303 9.41907 10.2373 9.28809C9.84435 9.1571 9.41907 9.36974 9.28809 9.7627L8 13.627L6.71191 9.7627C6.60983 9.45644 6.32282 9.25 6 9.25Z" fill="#00307C"/>
</svg>
