<svg width="24" height="24" viewBox="0 0 24 24" fill="none" xmlns="http://www.w3.org/2000/svg">
<path d="M12 1C18.0751 1 23 5.92487 23 12C23 18.0751 18.0751 23 12 23C9.34889 23 6.91691 22.062 5.01758 20.5H9.04102C9.96794 20.8226 10.9631 21 12 21C16.6325 21 20.4458 17.4999 20.9434 13H13V9.5C13 8.19415 12.1647 7.08594 11 6.67383V3.05664C8.51297 3.33162 6.33303 4.62079 4.87891 6.5H3C2.81051 6.5 2.62505 6.51719 2.44531 6.55078C4.34011 3.23558 7.90804 1 12 1Z" fill="#BE123C"/>
<path d="M7 10.25C7.77877 10.25 8.00439 10.5197 8.09863 10.6846C8.23847 10.9293 8.25 11.2397 8.25 11.5C8.25 11.7603 8.23847 12.0707 8.09863 12.3154C8.00439 12.4803 7.77877 12.75 7 12.75H4.75V10.25H7Z" fill="#BE123C"/>
<path fill-rule="evenodd" clip-rule="evenodd" d="M10 7.5C11.1046 7.5 12 8.39543 12 9.5V17.5C12 18.6046 11.1046 19.5 10 19.5H2C0.895431 19.5 3.22133e-08 18.6046 0 17.5V9.5C1.28853e-07 8.39543 0.895431 7.5 2 7.5H10ZM4 8.75C3.58579 8.75 3.25 9.08579 3.25 9.5V17.5C3.25 17.9142 3.58579 18.25 4 18.25C4.41421 18.25 4.75 17.9142 4.75 17.5V14.25H7C8.22106 14.25 8.99558 13.7697 9.40137 13.0596C9.76147 12.4293 9.75 11.7397 9.75 11.5C9.75 11.2603 9.76147 10.5707 9.40137 9.94043C8.99558 9.2303 8.22106 8.75 7 8.75H4Z" fill="#BE123C"/>
</svg>
