<svg width="24" height="24" viewBox="0 0 24 24" fill="none" xmlns="http://www.w3.org/2000/svg">
<path d="M19 2C20.6569 2 22 3.34315 22 5V19C22 20.6569 20.6569 22 19 22H5C3.34 22 2 20.66 2 19H4C4 19.55 4.45 20 5 20H14V16H13V14H14V10H13V8H14V4H5C4.44772 4 4 4.44772 4 5H2C2 3.34315 3.34315 2 5 2H19ZM16 20H19C19.5523 20 20 19.5523 20 19V16H16V20ZM16 14H20V10H16V14ZM16 8H20V5C20 4.44771 19.5523 4 19 4H16V8Z" fill="#15803D"/>
<path fill-rule="evenodd" clip-rule="evenodd" d="M12 8C12 6.89543 11.1046 6 10 6H2C0.895431 6 1.28853e-07 6.89543 0 8V16C3.22133e-08 17.1046 0.895431 18 2 18H10C11.1046 18 12 17.1046 12 16V8ZM9.4502 7.40039C9.11893 7.15194 8.64898 7.2187 8.40039 7.5498L6 10.75L3.59961 7.5498L3.55078 7.49121C3.29315 7.21164 2.86049 7.16738 2.5498 7.40039C2.23927 7.63354 2.16097 8.06118 2.35742 8.38672L2.40039 8.4502L5.0625 12L2.40039 15.5498C2.15194 15.8811 2.2187 16.351 2.5498 16.5996C2.88107 16.8481 3.35102 16.7813 3.59961 16.4502L6 13.249L8.40039 16.4502L8.44922 16.5088C8.70685 16.7884 9.13951 16.8326 9.4502 16.5996C9.7813 16.351 9.84806 15.8811 9.59961 15.5498L6.93652 12L9.59961 8.4502C9.84806 8.11893 9.7813 7.64898 9.4502 7.40039Z" fill="#15803D"/>
</svg>
