<svg width="24" height="24" viewBox="0 0 24 24" fill="none" xmlns="http://www.w3.org/2000/svg">
<path d="M8.98242 4.64683C10.1604 4.18005 11.4457 4.04968 12.6934 4.27085C13.9409 4.49208 15.1022 5.05656 16.0479 5.89976C16.804 6.57405 17.3981 7.40633 17.791 8.33335H18.582C19.8417 8.33344 21.0507 8.83328 21.9414 9.72398C22.8321 10.6147 23.3319 11.8238 23.332 13.0834C23.3319 14.3427 22.8317 15.5511 21.9414 16.4418C21.0507 17.3325 19.8417 17.8333 18.582 17.8334H13V15.8334H18.582C19.3112 15.8333 20.0107 15.5432 20.5264 15.0277C21.0418 14.5121 21.3319 13.8124 21.332 13.0834C21.3319 12.3542 21.042 11.6537 20.5264 11.138C20.0108 10.6227 19.3111 10.3334 18.582 10.3334H17.0908C16.6486 10.3334 16.2582 10.0423 16.1318 9.61851C15.8757 8.75978 15.3856 7.98838 14.7168 7.39195C14.048 6.79567 13.226 6.39703 12.3438 6.24058C11.4615 6.08423 10.5527 6.17621 9.71973 6.50621C8.93038 6.81906 8.23916 7.33607 7.71289 8.00035H5.36133C5.54688 7.62079 5.76778 7.25698 6.02246 6.91539C6.77986 5.89972 7.80458 5.11366 8.98242 4.64683Z" fill="#0E7490"/>
<path fill-rule="evenodd" clip-rule="evenodd" d="M10 9.00009C11.1046 9.00009 12 9.89552 12 11.0001V19.0001C12 20.1047 11.1046 21.0001 10 21.0001H2C0.895431 21.0001 3.22133e-08 20.1047 0 19.0001V11.0001C1.28853e-07 9.89552 0.895431 9.00009 2 9.00009H10ZM5.75 10.2501C4.82531 10.2501 4.06413 10.5629 3.53223 11.0948C3.00738 11.6197 2.75 12.3146 2.75 13.0001C2.75 13.6856 3.00738 14.3805 3.53223 14.9054C4.06413 15.4373 4.82531 15.7501 5.75 15.7501H6.5C7.07531 15.7501 7.43913 15.9373 7.65723 16.1554C7.88238 16.3805 8 16.6856 8 17.0001C8 17.3146 7.88238 17.6197 7.65723 17.8448C7.43913 18.0629 7.07531 18.2501 6.5 18.2501H5.5C4.74343 18.2501 4.18547 17.9048 4.00781 17.4171L3.95508 17.2452C3.82625 16.8875 3.44514 16.6785 3.06836 16.7726C2.66659 16.873 2.42215 17.28 2.52246 17.6817C2.88766 19.1425 4.30675 19.7501 5.5 19.7501H6.5C7.42469 19.7501 8.18587 19.4373 8.71777 18.9054C9.24262 18.3805 9.5 17.6856 9.5 17.0001C9.5 16.3146 9.24262 15.6197 8.71777 15.0948C8.18587 14.5629 7.42469 14.2501 6.5 14.2501H5.75C5.17469 14.2501 4.81087 14.0629 4.59277 13.8448C4.36762 13.6197 4.25 13.3146 4.25 13.0001C4.25 12.6856 4.36762 12.3805 4.59277 12.1554C4.81087 11.9373 5.17469 11.7501 5.75 11.7501H6.25C7.00657 11.7501 7.56453 12.0954 7.74219 12.5831L7.79492 12.755C7.92375 13.1127 8.30486 13.3217 8.68164 13.2276C9.05834 13.1335 9.2966 12.7698 9.24219 12.3936L9.22754 12.3185L9.14746 12.0538C8.68618 10.7836 7.36859 10.2501 6.25 10.2501H5.75Z" fill="#0E7490"/>
</svg>
