<svg width="172" height="48" viewBox="0 0 172 48" fill="none" xmlns="http://www.w3.org/2000/svg">
<path d="M62.352 16.304C62.352 18.256 61.984 19.888 61.248 21.2C60.512 22.512 59.456 23.496 58.08 24.152C56.704 24.808 55.064 25.136 53.16 25.136H51C49.3431 25.136 48 23.7929 48 22.136V11C48 9.34315 49.3431 8 51 8H53.64C55.448 8 57 8.32 58.296 8.96C59.608 9.6 60.608 10.536 61.296 11.768C62 12.984 62.352 14.496 62.352 16.304ZM58.128 16.448C58.128 15.28 57.96 14.32 57.624 13.568C57.304 12.816 56.816 12.256 56.16 11.888C55.52 11.52 54.72 11.336 53.76 11.336H52.08V21.776H53.4C55.016 21.776 56.208 21.336 56.976 20.456C57.744 19.56 58.128 18.224 58.128 16.448Z" fill="#00307C"/>
<path d="M77.6713 18.512C77.6713 19.616 77.5193 20.592 77.2153 21.44C76.9273 22.288 76.4953 23.008 75.9193 23.6C75.3593 24.192 74.6793 24.64 73.8793 24.944C73.0953 25.232 72.1913 25.376 71.1673 25.376C70.2393 25.376 69.3753 25.232 68.5753 24.944C67.7913 24.64 67.1113 24.2 66.5353 23.624C65.9753 23.032 65.5353 22.312 65.2153 21.464C64.8953 20.6 64.7353 19.616 64.7353 18.512C64.7353 17.056 64.9913 15.824 65.5033 14.816C66.0313 13.808 66.7833 13.04 67.7593 12.512C68.7353 11.984 69.8953 11.72 71.2393 11.72C72.5033 11.72 73.6153 11.984 74.5753 12.512C75.5353 13.04 76.2873 13.808 76.8313 14.816C77.3913 15.824 77.6713 17.056 77.6713 18.512ZM68.8393 18.512C68.8393 19.328 68.9193 20.016 69.0793 20.576C69.2393 21.136 69.4953 21.56 69.8473 21.848C70.1993 22.12 70.6553 22.256 71.2153 22.256C71.7913 22.256 72.2473 22.12 72.5833 21.848C72.9193 21.56 73.1673 21.136 73.3273 20.576C73.4873 20.016 73.5673 19.328 73.5673 18.512C73.5673 17.696 73.4873 17.016 73.3273 16.472C73.1673 15.928 72.9113 15.52 72.5593 15.248C72.2233 14.976 71.7673 14.84 71.1913 14.84C70.3753 14.84 69.7753 15.152 69.3913 15.776C69.0233 16.384 68.8393 17.296 68.8393 18.512Z" fill="#00307C"/>
<path d="M86.1182 25.376C84.8062 25.376 83.6702 25.144 82.7102 24.68C81.7662 24.2 81.0382 23.464 80.5262 22.472C80.0302 21.464 79.7822 20.176 79.7822 18.608C79.7822 17.008 80.0622 15.704 80.6222 14.696C81.1982 13.672 81.9902 12.92 82.9982 12.44C84.0062 11.96 85.1582 11.72 86.4542 11.72C87.3182 11.72 88.0942 11.808 88.7822 11.984C88.9297 12.0209 89.0736 12.0598 89.2141 12.1009C90.0552 12.3469 90.4133 13.2803 90.0979 14.0979L90.074 14.1596C89.7462 15.0095 88.7907 15.4137 87.9182 15.152C87.4382 15.008 86.9502 14.936 86.4542 14.936C85.9102 14.936 85.4462 15.072 85.0622 15.344C84.6782 15.6 84.3822 16 84.1742 16.544C83.9822 17.088 83.8862 17.768 83.8862 18.584C83.8862 19.4 83.9902 20.072 84.1982 20.6C84.4062 21.112 84.7022 21.496 85.0862 21.752C85.4702 22.008 85.9342 22.136 86.4782 22.136C87.1822 22.136 87.8382 22.032 88.4462 21.824C89.2582 21.5533 90.2222 22.0974 90.2222 22.9534V23.5305C90.2222 24.0078 89.9848 24.4622 89.5573 24.6746C89.2046 24.8498 88.8342 24.9956 88.4462 25.112C87.8062 25.288 87.0302 25.376 86.1182 25.376Z" fill="#00307C"/>
<path d="M103.543 11.96C104.648 11.96 105.543 12.8554 105.543 13.96V23.3643C105.543 24.3428 104.75 25.136 103.771 25.136C102.997 25.136 102.313 24.6338 102.081 23.8955L101.943 23.456H101.703C101.431 23.904 101.079 24.272 100.647 24.56C100.231 24.832 99.767 25.032 99.255 25.16C98.759 25.304 98.239 25.376 97.695 25.376C96.799 25.376 95.999 25.208 95.295 24.872C94.591 24.536 94.039 24.016 93.639 23.312C93.239 22.592 93.039 21.672 93.039 20.552V13.96C93.039 12.8554 93.9344 11.96 95.039 11.96H95.095C96.1996 11.96 97.095 12.8554 97.095 13.96V19.424C97.095 20.32 97.239 21 97.527 21.464C97.831 21.928 98.311 22.16 98.967 22.16C99.623 22.16 100.135 22 100.503 21.68C100.871 21.36 101.127 20.888 101.271 20.264C101.415 19.624 101.487 18.856 101.487 17.96V13.96C101.487 12.8554 102.382 11.96 103.487 11.96H103.543Z" fill="#00307C"/>
<path d="M124.769 11.72C126.273 11.72 127.409 12.104 128.177 12.872C128.961 13.624 129.353 14.848 129.353 16.544V23.136C129.353 24.2406 128.442 25.136 127.337 25.136C126.232 25.136 125.321 24.2406 125.321 23.136V17.672C125.321 16.712 125.169 16.016 124.865 15.584C124.577 15.136 124.129 14.912 123.521 14.912C122.673 14.912 122.073 15.248 121.721 15.92C121.369 16.576 121.193 17.52 121.193 18.752V23.136C121.193 24.2406 120.282 25.136 119.177 25.136C118.072 25.136 117.161 24.2406 117.161 23.136V17.672C117.161 17.048 117.097 16.536 116.969 16.136C116.841 15.72 116.649 15.416 116.393 15.224C116.137 15.016 115.801 14.912 115.385 14.912C114.793 14.912 114.321 15.08 113.969 15.416C113.633 15.736 113.393 16.208 113.249 16.832C113.121 17.456 113.057 18.224 113.057 19.136V23.136C113.057 24.2406 112.162 25.136 111.057 25.136H111.001C109.896 25.136 109.001 24.2406 109.001 23.136V13.7555C109.001 12.7639 109.805 11.96 110.797 11.96C111.561 11.96 112.241 12.4438 112.492 13.1656L112.649 13.616H112.817C113.073 13.2 113.393 12.856 113.777 12.584C114.161 12.296 114.601 12.08 115.097 11.936C115.593 11.792 116.129 11.72 116.705 11.72C117.665 11.72 118.473 11.88 119.129 12.2C119.785 12.52 120.297 12.984 120.665 13.592H120.905C121.321 12.968 121.873 12.504 122.561 12.2C123.249 11.88 123.985 11.72 124.769 11.72Z" fill="#00307C"/>
<path d="M138.455 11.72C139.703 11.72 140.775 11.952 141.671 12.416C142.583 12.864 143.279 13.536 143.759 14.432C144.255 15.312 144.503 16.408 144.503 17.72C144.503 18.7539 143.665 19.592 142.631 19.592H136.175C136.207 20.456 136.487 21.144 137.015 21.656C137.543 22.168 138.295 22.424 139.271 22.424C140.119 22.424 140.887 22.344 141.575 22.184C141.608 22.1763 141.641 22.1684 141.674 22.1603C142.652 21.9205 143.711 22.5811 143.711 23.5885C143.711 24.0973 143.432 24.5742 142.958 24.7584C142.539 24.921 142.102 25.0469 141.647 25.136C140.911 25.296 140.007 25.376 138.935 25.376C137.607 25.376 136.423 25.136 135.383 24.656C134.359 24.176 133.551 23.44 132.959 22.448C132.383 21.44 132.095 20.168 132.095 18.632C132.095 17.064 132.359 15.776 132.887 14.768C133.415 13.744 134.159 12.984 135.119 12.488C136.079 11.976 137.191 11.72 138.455 11.72ZM138.527 14.528C137.903 14.528 137.383 14.728 136.967 15.128C136.567 15.512 136.327 16.128 136.247 16.976H140.783C140.783 16.512 140.695 16.096 140.519 15.728C140.359 15.36 140.111 15.072 139.775 14.864C139.439 14.64 139.023 14.528 138.527 14.528Z" fill="#00307C"/>
<path d="M155.076 11.72C156.468 11.72 157.588 12.104 158.436 12.872C159.3 13.624 159.732 14.848 159.732 16.544V23.136C159.732 24.2406 158.82 25.136 157.716 25.136C156.611 25.136 155.7 24.2406 155.7 23.136V17.672C155.7 16.76 155.548 16.072 155.244 15.608C154.94 15.144 154.46 14.912 153.804 14.912C152.828 14.912 152.164 15.28 151.812 16.016C151.46 16.736 151.284 17.776 151.284 19.136V23.136C151.284 24.2406 150.388 25.136 149.284 25.136H149.228C148.123 25.136 147.228 24.2406 147.228 23.136V13.7386C147.228 12.7563 148.024 11.96 149.006 11.96C149.777 11.96 150.461 12.4569 150.698 13.1905L150.852 13.664H151.044C151.332 13.232 151.676 12.872 152.076 12.584C152.476 12.296 152.932 12.08 153.444 11.936C153.956 11.792 154.5 11.72 155.076 11.72Z" fill="#00307C"/>
<path d="M169.118 22.16C169.534 22.16 169.918 22.12 170.27 22.04C170.806 21.9181 171.35 22.3026 171.35 22.8527V23.7635C171.35 24.3354 171.015 24.863 170.467 25.0259C170.274 25.0831 170.072 25.1358 169.862 25.184C169.302 25.312 168.638 25.376 167.87 25.376C167.054 25.376 166.326 25.248 165.686 24.992C165.062 24.72 164.566 24.264 164.198 23.624C163.846 22.968 163.67 22.064 163.67 20.912V14.984H163.366C162.606 14.984 161.99 14.3677 161.99 13.6074C161.99 12.9857 162.406 12.4411 163.006 12.2786L164.006 12.008L164.723 10.1986C164.957 9.61029 165.525 9.224 166.158 9.224C167.011 9.224 167.702 9.91509 167.702 10.7676V11.96H169.694C170.529 11.96 171.206 12.6369 171.206 13.472C171.206 14.3071 170.529 14.984 169.694 14.984H167.702V20.768C167.702 21.232 167.83 21.584 168.086 21.824C168.342 22.048 168.686 22.16 169.118 22.16Z" fill="#00307C"/>
<path d="M53.688 30.604C55.88 30.604 57.496 31.084 58.536 32.044C59.592 32.988 60.12 34.308 60.12 36.004C60.12 36.772 60.008 37.508 59.784 38.212C59.56 38.9 59.184 39.516 58.656 40.06C58.144 40.604 57.464 41.036 56.616 41.356C55.784 41.676 54.752 41.836 53.52 41.836H52.08V45.74C52.08 46.8446 51.1846 47.74 50.08 47.74H50C48.8954 47.74 48 46.8446 48 45.74V33.604C48 31.9471 49.3431 30.604 51 30.604H53.688ZM53.544 33.94H52.08V38.5H53.16C53.72 38.5 54.208 38.42 54.624 38.26C55.056 38.1 55.392 37.844 55.632 37.492C55.872 37.14 55.992 36.684 55.992 36.124C55.992 35.42 55.792 34.884 55.392 34.516C54.992 34.132 54.376 33.94 53.544 33.94Z" fill="#00307C"/>
<path d="M75.0932 41.116C75.0932 42.22 74.9412 43.196 74.6372 44.044C74.3492 44.892 73.9172 45.612 73.3412 46.204C72.7812 46.796 72.1012 47.244 71.3012 47.548C70.5172 47.836 69.6132 47.98 68.5892 47.98C67.6612 47.98 66.7972 47.836 65.9972 47.548C65.2132 47.244 64.5332 46.804 63.9572 46.228C63.3972 45.636 62.9572 44.916 62.6372 44.068C62.3172 43.204 62.1572 42.22 62.1572 41.116C62.1572 39.66 62.4132 38.428 62.9252 37.42C63.4532 36.412 64.2052 35.644 65.1812 35.116C66.1572 34.588 67.3172 34.324 68.6612 34.324C69.9252 34.324 71.0372 34.588 71.9972 35.116C72.9572 35.644 73.7092 36.412 74.2532 37.42C74.8132 38.428 75.0932 39.66 75.0932 41.116ZM66.2612 41.116C66.2612 41.932 66.3412 42.62 66.5012 43.18C66.6612 43.74 66.9172 44.164 67.2692 44.452C67.6212 44.724 68.0772 44.86 68.6372 44.86C69.2132 44.86 69.6692 44.724 70.0052 44.452C70.3412 44.164 70.5892 43.74 70.7492 43.18C70.9092 42.62 70.9892 41.932 70.9892 41.116C70.9892 40.3 70.9092 39.62 70.7492 39.076C70.5892 38.532 70.3332 38.124 69.9812 37.852C69.6452 37.58 69.1892 37.444 68.6132 37.444C67.7972 37.444 67.1972 37.756 66.8132 38.38C66.4452 38.988 66.2612 39.9 66.2612 41.116Z" fill="#00307C"/>
<path d="M85.5321 34.324C86.2755 34.3705 86.7789 34.9988 86.7132 35.7408L86.607 36.9392C86.5461 37.6264 85.8842 38.1652 85.1961 38.116C84.8121 38.116 84.4281 38.164 84.0441 38.26C83.6601 38.34 83.3081 38.492 82.9881 38.716C82.6681 38.924 82.4121 39.228 82.2201 39.628C82.0281 40.012 81.9321 40.516 81.9321 41.14V45.74C81.9321 46.8446 81.0366 47.74 79.9321 47.74H79.8761C78.7715 47.74 77.8761 46.8446 77.8761 45.74V36.3037C77.8761 35.3429 78.655 34.564 79.6158 34.564C80.3906 34.564 81.0721 35.0765 81.2872 35.8209L81.5481 36.724H81.7161C81.9721 36.276 82.2921 35.876 82.6761 35.524C83.0601 35.156 83.4921 34.868 83.9721 34.66C84.4681 34.436 84.9881 34.324 85.5321 34.324Z" fill="#00307C"/>
<path d="M94.9146 44.764C95.3306 44.764 95.7146 44.724 96.0666 44.644C96.603 44.5221 97.1466 44.9066 97.1466 45.4567V46.3675C97.1466 46.9394 96.8118 47.467 96.2636 47.6299C96.071 47.6871 95.8693 47.7398 95.6586 47.788C95.0986 47.916 94.4346 47.98 93.6666 47.98C92.8506 47.98 92.1226 47.852 91.4826 47.596C90.8586 47.324 90.3626 46.868 89.9946 46.228C89.6426 45.572 89.4666 44.668 89.4666 43.516V37.588H89.1632C88.4029 37.588 87.7866 36.9717 87.7866 36.2114C87.7866 35.5897 88.2032 35.0451 88.8033 34.8826L89.8026 34.612L90.5201 32.8026C90.7534 32.2143 91.3221 31.828 91.955 31.828C92.8075 31.828 93.4986 32.5191 93.4986 33.3716V34.564H95.4906C96.3256 34.564 97.0026 35.2409 97.0026 36.076C97.0026 36.9111 96.3256 37.588 95.4906 37.588H93.4986V43.372C93.4986 43.836 93.6266 44.188 93.8826 44.428C94.1386 44.652 94.4826 44.764 94.9146 44.764Z" fill="#00307C"/>
<path d="M105.553 34.3C107.265 34.3 108.593 34.7 109.537 35.5C110.481 36.284 110.953 37.452 110.953 39.004V46.0371C110.953 46.9776 110.191 47.74 109.251 47.74C108.578 47.74 107.969 47.3446 107.695 46.7307L107.354 45.964H107.257C106.889 46.428 106.505 46.812 106.105 47.116C105.721 47.42 105.273 47.636 104.761 47.764C104.265 47.908 103.649 47.98 102.913 47.98C102.145 47.98 101.45 47.828 100.826 47.524C100.218 47.22 99.7375 46.756 99.3855 46.132C99.0335 45.508 98.8575 44.716 98.8575 43.756C98.8575 42.348 99.3455 41.308 100.322 40.636C101.314 39.964 102.761 39.588 104.665 39.508L106.922 39.436V39.052C106.922 38.412 106.754 37.948 106.418 37.66C106.098 37.372 105.65 37.228 105.074 37.228C104.498 37.228 103.897 37.324 103.273 37.516C103.112 37.5616 102.949 37.6105 102.786 37.6626C101.989 37.9175 101.101 37.5806 100.754 36.819C100.416 36.0775 100.712 35.1907 101.483 34.9275C101.838 34.8062 102.211 34.701 102.602 34.612C103.514 34.404 104.497 34.3 105.553 34.3ZM105.698 41.788C104.69 41.82 103.986 42.004 103.586 42.34C103.186 42.66 102.985 43.1 102.985 43.66C102.985 44.156 103.13 44.516 103.418 44.74C103.706 44.964 104.073 45.076 104.521 45.076C105.193 45.076 105.762 44.876 106.226 44.476C106.69 44.06 106.922 43.5 106.922 42.796V41.74L105.698 41.788Z" fill="#00307C"/>
<path d="M118.424 45.74C118.424 46.8446 117.529 47.74 116.424 47.74H116.368C115.264 47.74 114.368 46.8446 114.368 45.74V31.5C114.368 30.3954 115.264 29.5 116.368 29.5H116.424C117.529 29.5 118.424 30.3954 118.424 31.5V45.74Z" fill="#00307C"/>
<path d="M0 44C0 46.2091 1.79086 48 4 48H36C38.2091 48 40 46.2091 40 44V38L0 40V44Z" fill="#00A884"/>
<path fill-rule="evenodd" clip-rule="evenodd" d="M25.1716 1.17157C24.4214 0.421427 23.404 0 22.3431 0H4C1.79086 0 0 1.79086 0 4V24L40 28V17.6569C40 16.596 39.5786 15.5786 38.8284 14.8284L25.1716 1.17157Z" fill="#00307C"/>
<path d="M40 38V28L0 24V40L40 38Z" fill="#026D91"/>
</svg>
